<?xml version="1.0" standalone="no"?>
<!DOCTYPE svg PUBLIC "-//W3C//DTD SVG 20010904//EN"
 "http://www.w3.org/TR/2001/REC-SVG-20010904/DTD/svg10.dtd">
<svg version="1.0" xmlns="http://www.w3.org/2000/svg"
 width="1563.000000pt" height="223.000000pt" viewBox="0 0 1563.000000 223.000000"
 preserveAspectRatio="xMidYMid meet">

<g transform="translate(0.000000,223.000000) scale(0.100000,-0.100000)"
fill="#000000" stroke="none">
<path d="M920 1634 c0 -38 -18 -64 -45 -64 -42 0 -55 -10 -55 -44 0 -39 -15
-56 -50 -56 -47 0 -50 -12 -50 -195 0 -187 2 -195 57 -195 33 0 36 -4 45 -65
2 -11 12 -21 23 -23 60 -9 64 -12 72 -55 l9 -42 159 -5 160 -5 11 -45 c10 -42
13 -45 50 -50 l39 -5 3 -209 c2 -140 -1 -213 -9 -222 -6 -7 -29 -14 -52 -16
-33 -2 -42 -7 -45 -23 -10 -65 -10 -66 -55 -63 l-42 3 -3 154 c-1 93 -7 160
-13 168 -14 16 -379 19 -410 3 -17 -10 -19 -23 -19 -155 0 -79 3 -150 6 -159
4 -10 18 -16 39 -16 39 0 52 -14 57 -60 l3 -35 390 0 390 0 6 38 c8 47 15 55
59 59 33 3 35 6 40 43 5 36 8 40 40 45 62 10 60 4 60 224 0 216 -2 226 -50
226 -35 0 -50 17 -50 56 0 33 -13 44 -54 44 -31 0 -46 19 -46 57 l0 33 -143 0
c-160 0 -174 5 -179 60 -3 34 -4 35 -53 40 l-50 5 0 190 0 190 40 5 c36 5 40
8 45 40 8 49 17 60 48 60 47 0 51 -9 54 -125 l3 -110 38 -6 c47 -8 55 -15 59
-59 l3 -35 139 -3 c93 -2 143 1 152 9 19 16 20 287 2 312 -10 12 -32 17 -88
19 l-75 3 -5 40 -5 40 -327 3 -328 2 0 -26z"/>
<path d="M2307 1654 c-9 -9 -9 -1466 -1 -1488 5 -14 33 -16 208 -16 144 0 205
3 214 12 9 9 12 90 12 304 0 320 -3 304 60 304 30 0 40 15 40 61 0 29 1 30 43
27 l42 -3 3 -339 c1 -230 6 -344 13 -353 17 -19 402 -19 418 1 8 9 10 215 9
752 l-3 739 -215 0 -215 0 -5 -300 -5 -300 -40 -5 c-37 -5 -40 -7 -43 -40 -5
-48 -19 -62 -61 -58 l-36 3 -5 350 -5 350 -211 3 c-115 1 -213 -1 -217 -4z"/>
<path d="M3912 908 l3 -753 469 -3 c338 -1 473 1 482 9 22 18 20 392 -2 413
-12 13 -41 16 -154 16 -76 0 -145 -3 -154 -6 -10 -4 -16 -18 -16 -39 0 -39
-14 -52 -60 -57 l-35 -3 -5 -115 -5 -115 -45 0 -45 0 -3 255 c-1 140 0 265 3
278 5 22 7 22 179 22 137 0 176 3 185 14 8 9 11 43 9 93 l-3 78 -175 5 c-96 3
-181 9 -187 13 -18 11 -19 527 -1 545 16 16 63 15 76 -1 6 -7 13 -60 14 -117
l3 -105 38 -6 c47 -8 55 -15 59 -59 l3 -35 159 -3 c121 -2 161 1 168 10 9 15
11 378 2 402 -5 14 -58 16 -485 16 l-479 0 2 -752z"/>
<path d="M5387 1653 c-4 -3 -7 -338 -7 -743 0 -559 3 -739 12 -748 18 -18 402
-17 417 1 7 9 12 115 13 323 l3 309 42 3 42 3 8 -43 c6 -31 14 -44 28 -46 11
-1 30 -5 43 -8 l22 -4 0 -263 c0 -191 3 -266 12 -275 17 -17 399 -17 416 0 17
17 17 524 0 534 -7 4 -28 10 -48 14 -32 5 -35 9 -40 45 l-5 40 -104 3 c-59 1
-111 8 -118 14 -9 7 -13 26 -11 47 l3 36 115 5 115 5 3 35 c5 46 18 60 57 60
21 0 35 6 39 16 3 9 6 109 6 223 0 221 -2 231 -50 231 -33 0 -50 17 -50 50 0
35 -17 50 -56 50 -35 0 -44 13 -44 61 l0 29 -428 0 c-236 0 -432 -3 -435 -7z
m519 -95 c4 -7 10 -28 14 -48 5 -32 9 -35 45 -40 l40 -5 0 -230 0 -230 -40 -5
c-37 -5 -40 -8 -46 -43 -8 -49 -19 -59 -60 -55 l-34 3 -3 320 c-1 176 0 325 3
332 6 17 71 17 81 1z"/>
<path d="M6995 1648 c-3 -7 -4 -346 -3 -753 l3 -740 210 0 210 0 0 750 0 750
-208 3 c-160 2 -209 0 -212 -10z"/>
<path d="M7967 1653 c-9 -8 -9 -1466 -1 -1487 5 -14 33 -16 209 -16 157 0 205
3 214 13 7 10 12 152 13 463 l3 449 35 3 c40 4 60 -16 60 -60 0 -23 4 -28 26
-28 40 0 64 -18 64 -48 0 -43 13 -54 56 -50 37 3 39 5 42 38 4 41 24 60 64 60
28 0 31 6 40 65 3 16 11 20 43 20 l40 0 3 -449 c1 -315 6 -453 13 -463 9 -11
54 -13 218 -11 l206 3 0 750 0 750 -65 0 c-57 0 -65 -2 -68 -20 -9 -60 -12
-65 -41 -65 -48 0 -61 -9 -61 -45 0 -39 -14 -52 -60 -57 -32 -3 -35 -6 -38
-38 -5 -46 -18 -60 -57 -60 -36 0 -45 -13 -45 -61 0 -25 -4 -29 -29 -29 -48 0
-61 -9 -61 -45 0 -39 -14 -52 -60 -57 -32 -3 -35 -6 -38 -38 -5 -45 -18 -60
-51 -60 -36 0 -51 17 -51 56 0 33 -13 44 -54 44 -31 0 -46 19 -46 57 0 33 -4
36 -65 45 -11 2 -21 12 -23 23 -9 61 -12 65 -46 65 -40 0 -53 14 -58 60 -3 32
-6 35 -38 38 -46 5 -60 18 -60 58 0 34 -4 37 -65 46 -11 2 -21 12 -23 23 -10
67 -8 65 -76 65 -34 0 -66 -3 -69 -7z"/>
<path d="M10246 1638 c-3 -13 -7 -32 -8 -42 -2 -13 -15 -23 -36 -28 -26 -7
-32 -13 -32 -36 0 -40 -19 -60 -60 -64 -32 -3 -35 -6 -38 -40 -4 -44 -16 -55
-62 -60 -33 -3 -35 -6 -40 -43 -4 -36 -8 -40 -35 -43 -16 -1 -40 -5 -53 -7
l-22 -5 2 -558 3 -557 210 0 210 0 3 224 c1 139 6 229 13 237 6 7 27 14 47 16
35 3 37 5 42 42 6 48 28 64 67 50 l28 -9 5 -280 5 -280 210 0 210 0 3 702 2
703 -22 4 c-13 3 -32 7 -43 8 -11 2 -21 12 -23 23 -1 11 -5 30 -8 43 l-4 22
-285 0 -285 0 -4 -22z m232 -80 c18 -18 17 -621 -1 -636 -6 -6 -28 -12 -47
-14 -32 -3 -35 -6 -38 -38 -5 -45 -18 -60 -51 -60 -51 0 -51 2 -51 330 0 327
0 330 50 330 33 0 50 17 50 50 0 33 17 50 50 50 14 0 31 -5 38 -12z"/>
<path d="M11467 1653 c-4 -3 -7 -338 -7 -743 0 -559 3 -739 12 -748 18 -18
402 -17 417 1 7 9 12 115 13 323 l3 309 42 3 42 3 8 -43 c6 -31 14 -44 28 -46
11 -1 30 -5 43 -8 l22 -4 0 -263 c0 -191 3 -266 12 -275 17 -17 399 -17 416 0
17 17 17 524 0 534 -7 4 -28 10 -48 14 -32 5 -35 9 -40 45 l-5 40 -104 3 c-59
1 -111 8 -118 14 -9 7 -13 26 -11 47 l3 36 115 5 115 5 3 35 c5 46 18 60 57
60 21 0 35 6 39 16 3 9 6 109 6 223 0 221 -2 231 -50 231 -33 0 -50 17 -50 50
0 35 -17 50 -56 50 -35 0 -44 13 -44 61 l0 29 -428 0 c-236 0 -432 -3 -435 -7z
m519 -95 c4 -7 10 -28 14 -48 5 -32 9 -35 45 -40 l40 -5 0 -230 0 -230 -40 -5
c-37 -5 -40 -8 -46 -43 -8 -49 -19 -59 -60 -55 l-34 3 -3 320 c-1 176 0 325 3
332 6 17 71 17 81 1z"/>
<path d="M13004 1647 c-2 -7 -3 -102 -2 -212 l3 -200 90 0 89 0 9 42 c7 39 11
43 50 50 l42 9 3 104 c1 58 8 110 14 117 7 9 26 13 47 11 l36 -3 3 -694 c1
-493 5 -698 13 -708 17 -19 401 -19 418 0 8 10 12 215 13 708 l3 694 36 3 c21
2 40 -2 47 -11 6 -7 13 -59 14 -117 l3 -104 43 -9 c39 -8 42 -10 42 -41 0 -48
14 -56 106 -56 65 0 83 3 88 16 8 20 8 378 0 398 -6 14 -68 16 -605 16 -478 0
-601 -3 -605 -13z"/>
</g>
</svg>
